<svg width="100" height="100" xmlns="http://www.w3.org/2000/svg" xmlns:svg="http://www.w3.org/2000/svg">
 <title>Tap and pay</title>
 <g>
  <title>Layer 1</title>
  <path fill="#ffffff" id="svg_1" d="m57.195,52.095l0,0l7.021,0c1.637,0 2.977,1.18 2.977,2.621l-0.002,1.953c0,1.441 -1.34,2.621 -2.977,2.621l-7.02,0l0,0c-2.755,0 -5.008,-1.619 -5.008,-3.598s2.254,-3.597 5.009,-3.597z"/>
  <path fill="#ffffff" id="svg_2" d="m48.549,64.513c0,1.979 2.252,3.596 5.006,3.596c0.001,0 0.001,0 0.002,0l5.338,0c1.637,0 2.977,-1.178 2.977,-2.619l0.002,-1.953c0,-1.441 -1.34,-2.621 -2.977,-2.621l-5.34,0c-0.001,0 -0.001,0 -0.002,0c-2.754,-0.001 -5.006,1.618 -5.006,3.597z"/>
  <path fill="#ffffff" id="svg_3" d="m44.908,73.649406c0,1.977 2.253,3.596 5.007,3.596c0,0 0,0 0.001,0l3.659,0c1.636,0 2.978,-1.178 2.978,-2.619l0,-1.953c0,-1.441 -1.34,-2.619 -2.976,-2.619l-3.661,0c-0.001,0 -0.001,0 -0.001,0c-2.754,-0.001 -5.007,1.616 -5.007,3.595z"/>
  <path fill="#ffffff" id="svg_4" d="m69.186,43.277c0,0 0,0 -0.002,0l-2.809,0l-2.635,7.193l5.443,0c0.002,0 0.002,0 0.002,0c2.754,0 5.006,-1.619 5.006,-3.597s-2.252,-3.596 -5.005,-3.596z"/>
  <path fill="#ffffaa" id="svg_5" d="m34.798,61.716c0,-1.84 -0.284,-3.631 -0.789,-5.324l13.785,5.049c-0.729,0.871 -1.15,1.926 -1.15,3.072c0,1.338 0.573,2.549 1.537,3.494c-2.48,0.494 -4.386,2.025 -4.979,4.006l-9.672,-3.543l0,0c0.81,-2.069 1.268,-4.35 1.268,-6.754zm5.554,5.816c1.513,0.555 3.188,-0.223 3.744,-1.736c0.554,-1.514 -0.225,-3.189 -1.736,-3.742c-1.517,-0.557 -3.193,0.221 -3.748,1.734c-0.554,1.514 0.224,3.19 1.74,3.744zm23.558,-40.511l-15.383,-5.634c-3.111,-1.139 -6.571,0.504 -7.729,3.669l-1.452,3.964c1.05,1.15 2.004,2.686 2.3,4.47l2.39,-6.524l19.703,7.216l-5.864,16.008l3.938,0l5.633,-15.375c1.158,-3.164 -0.423,-6.655 -3.536,-7.794z"/>
  <path fill="#ffffff" id="svg_6" d="m43.055,73.989l-12.121,-4.441c1.234,-2.277 1.96,-4.955 1.96,-7.832c0,-2.006 -0.354,-3.916 -0.982,-5.664c2.502,-6.428 6.794,-17.467 7.6,-19.645c1.623,-4.384 -3.162,-7.484 -3.162,-7.484l-12.731,21.697c-3.33,5.783 -4.907,8.764 -4.721,15.688c0,0 -4.623,5.346 -9.126,8.15l12.304,19.594c4.974,-4.607 7.733,-6.568 12.867,-9.191c10.719,-1.482 14.556,-6.043 14.556,-6.043c-3.398,-0.155 -6.064,-2.174 -6.444,-4.829z"/>
  <path fill="#ffff00" id="svg_7" d="m75.827,28.017c0,-4.228 -3.44,-7.668 -7.669,-7.668c-2.812,0 -5.267,1.525 -6.602,3.787l3.007,1.101c0.163,0.06 0.317,0.132 0.475,0.202c0.747,-0.902 1.86,-1.49 3.12,-1.49c2.244,0 4.069,1.825 4.069,4.068c0,1.711 -1.064,3.172 -2.563,3.773c0.138,1.205 0.012,2.46 -0.435,3.679l-0.052,0.142c3.748,-0.503 6.65,-3.712 6.65,-7.594z"/>
  <path fill="#ffff00" id="svg_8" d="m83.027,28.017c0,-8.198 -6.67,-14.868 -14.869,-14.868c-5.914,0 -11.019,3.48 -13.411,8.493l3.393,1.243c1.871,-3.637 5.655,-6.136 10.019,-6.136c6.214,0 11.27,5.055 11.27,11.269c0,6.214 -5.056,11.27 -11.27,11.27c-0.108,0 -0.214,-0.013 -0.321,-0.016l-0.772,2.107l2.119,0c1.317,0 2.533,0.284 3.569,0.774c5.955,-1.943 10.273,-7.542 10.273,-14.136z"/>
  <path fill="#ffff00" id="svg_9" d="m68.158,5.948c-9.057,0 -16.854,5.486 -20.25,13.308c0.431,0.08 0.856,0.194 1.272,0.346l2.173,0.796c2.909,-6.389 9.339,-10.851 16.805,-10.851c10.185,0 18.47,8.285 18.47,18.469c0,7.521 -4.525,13.996 -10.991,16.873c0.29,0.613 0.455,1.279 0.455,1.983c0,0.669 -0.15,1.304 -0.414,1.893c8.478,-3.083 14.55,-11.219 14.55,-20.749c0,-12.168 -9.901,-22.068 -22.07,-22.068z"/>
 </g>
</svg>