<svg xmlns="http://www.w3.org/2000/svg" xmlns:svg="http://www.w3.org/2000/svg" width="96" height="96"><rect id="backgroundrect" width="100%" height="100%" x="0" y="0" fill="none" stroke="none" class="" style=""/>
 <title>Tap and pay</title>
 <g style="" class="currentLayer">
  <title>Layer 1</title>
  <rect fill="#007fff" stroke-width="0" stroke-dasharray="null" stroke-linejoin="null" stroke-linecap="null" width="96" height="95" id="svg_12" stroke="#007fff" opacity="1" y="0" x="1.5999999046325684" class="" rx="0" ry="0"/>
  <path d="m55.195,50.095 l0,0 l7.021,0 c1.637,0 2.977,1.18 2.977,2.621 l-0.0020000000000000005,1.953 c0,1.441 -1.34,2.621 -2.977,2.621 l-7.02,0 l0,0 c-2.755,0 -5.008,-1.6190000000000002 -5.008,-3.598 s2.254,-3.597 5.009,-3.597 z" id="svg_1" fill="#ffffff" class=""/>
  <path d="m46.549,62.513000000000005 c0,1.979 2.252,3.596 5.006,3.596 c0.0010000000000000002,0 0.0010000000000000002,0 0.0020000000000000005,0 l5.338,0 c1.637,0 2.977,-1.178 2.977,-2.619 l0.0020000000000000005,-1.953 c0,-1.441 -1.34,-2.621 -2.977,-2.621 l-5.34,0 c-0.0010000000000000002,0 -0.0010000000000000002,0 -0.0020000000000000005,0 c-2.754,-0.0010000000000000002 -5.006,1.618 -5.006,3.597 z" id="svg_2" fill="#ffffff" class=""/>
  <path d="m42.908,71.649406 c0,1.9769999999999999 2.253,3.596 5.007,3.596 c0,0 0,0 0.0010000000000000002,0 l3.6590000000000003,0 c1.6360000000000001,0 2.9779999999999998,-1.178 2.9779999999999998,-2.619 l0,-1.953 c0,-1.441 -1.34,-2.619 -2.976,-2.619 l-3.661,0 c-0.0010000000000000002,0 -0.0010000000000000002,0 -0.0010000000000000002,0 c-2.754,-0.0010000000000000002 -5.007,1.616 -5.007,3.595 z" id="svg_3" fill="#ffffff" class=""/>
  <path d="m67.186,41.277 c0,0 0,0 -0.0020000000000000005,0 l-2.809,0 l-2.6350000000000002,7.193 l5.443,0 c0.0020000000000000005,0 0.0020000000000000005,0 0.0020000000000000005,0 c2.754,0 5.006,-1.6190000000000002 5.006,-3.597 s-2.252,-3.596 -5.005,-3.596 z" id="svg_4" fill="#ffffff" class=""/>
  <path d="m32.798,59.716 c0,-1.84 -0.28400000000000003,-3.6310000000000002 -0.789,-5.324 l13.785,5.049 c-0.7290000000000001,0.8710000000000001 -1.15,1.9260000000000002 -1.15,3.072 c0,1.338 0.5730000000000001,2.549 1.537,3.494 c-2.48,0.49400000000000005 -4.386,2.025 -4.979,4.006 l-9.672,-3.543 l0,0 c0.81,-2.069 1.268,-4.35 1.268,-6.7540000000000004 zm5.554,5.816 c1.513,0.555 3.188,-0.22300000000000003 3.744,-1.7360000000000002 c0.554,-1.514 -0.22500000000000003,-3.189 -1.7360000000000002,-3.742 c-1.517,-0.557 -3.193,0.22100000000000003 -3.748,1.734 c-0.554,1.514 0.22400000000000003,3.19 1.7400000000000002,3.744 zm23.558,-40.511 l-15.383000000000001,-5.634 c-3.111,-1.139 -6.571,0.504 -7.729,3.669 l-1.452,3.964 c1.05,1.15 2.004,2.686 2.3,4.47 l2.39,-6.524 l19.703,7.216 l-5.864,16.008 l3.938,0 l5.633,-15.375 c1.158,-3.164 -0.42300000000000004,-6.655 -3.536,-7.7940000000000005 z" id="svg_5" fill="#ffffaa" class=""/>
  <path d="m41.055,71.989 l-12.121,-4.441 c1.234,-2.277 1.96,-4.955 1.96,-7.832 c0,-2.006 -0.35400000000000004,-3.916 -0.982,-5.664 c2.502,-6.428 6.7940000000000005,-17.467 7.6,-19.645 c1.6230000000000002,-4.384 -3.162,-7.484 -3.162,-7.484 l-12.731,21.697 c-3.33,5.783 -4.907,8.764 -4.721,15.688 c0,0 -4.623,5.346 -9.126,8.15 l12.304,19.594 c4.974,-4.607 7.7330000000000005,-6.568 12.867,-9.191 c10.719,-1.482 14.556000000000001,-6.043 14.556000000000001,-6.043 c-3.398,-0.15500000000000003 -6.064,-2.174 -6.444,-4.829 z" id="svg_6" fill="#ffffff" class=""/>
  <path d="m73.827,26.017 c0,-4.228 -3.44,-7.668 -7.6690000000000005,-7.668 c-2.8120000000000003,0 -5.267,1.525 -6.602,3.787 l3.007,1.101 c0.16300000000000003,0.06000000000000001 0.31700000000000006,0.132 0.47500000000000003,0.202 c0.7470000000000001,-0.902 1.86,-1.49 3.12,-1.49 c2.244,0 4.069,1.8250000000000002 4.069,4.068 c0,1.711 -1.064,3.172 -2.563,3.773 c0.138,1.205 0.012000000000000002,2.46 -0.43500000000000005,3.6790000000000003 l-0.05200000000000001,0.14200000000000002 c3.748,-0.503 6.65,-3.712 6.65,-7.594 z" id="svg_7" fill="#ffff00" class=""/>
  <path d="m81.027,26.017 c0,-8.198 -6.67,-14.868 -14.869,-14.868 c-5.914,0 -11.019,3.48 -13.411,8.493 l3.3930000000000002,1.243 c1.871,-3.637 5.655,-6.136 10.019,-6.136 c6.214,0 11.27,5.055 11.27,11.269 c0,6.214 -5.056,11.27 -11.27,11.27 c-0.10800000000000001,0 -0.21400000000000002,-0.013000000000000003 -0.32100000000000006,-0.016000000000000004 l-0.772,2.107 l2.119,0 c1.3170000000000002,0 2.533,0.28400000000000003 3.569,0.774 c5.955,-1.943 10.273,-7.542 10.273,-14.136 z" id="svg_8" fill="#ffff00" class=""/>
  <path d="m66.158,3.9480000000000004 c-9.057,0 -16.854,5.486 -20.25,13.308 c0.43100000000000005,0.08000000000000002 0.8560000000000001,0.19400000000000003 1.272,0.3460000000000001 l2.173,0.796 c2.909,-6.389 9.339,-10.851 16.805,-10.851 c10.185,0 18.47,8.285 18.47,18.469 c0,7.521 -4.525,13.996 -10.991,16.873 c0.29000000000000004,0.6130000000000001 0.455,1.279 0.455,1.983 c0,0.6690000000000002 -0.15000000000000002,1.304 -0.41400000000000003,1.8930000000000002 c8.478,-3.083 14.55,-11.219 14.55,-20.749 c0,-12.168 -9.901,-22.068 -22.07,-22.068 z" id="svg_9" fill="#ffff00" class=""/>
 </g>
</svg>